<svg id="Layer_1" data-name="Layer 1" xmlns="http://www.w3.org/2000/svg" xmlns:xlink="http://www.w3.org/1999/xlink" viewBox="0 0 296.668 506.745"><defs><style>.cls-1{fill:#1997c7;}.cls-2{fill:#19a0da;}.cls-3{fill:url(#linear-gradient);}.cls-4{fill:url(#linear-gradient-2);}.cls-5{fill:url(#linear-gradient-3);}.cls-6{fill:url(#linear-gradient-4);}.cls-7{fill:url(#linear-gradient-5);}.cls-8{fill:url(#linear-gradient-6);}</style><linearGradient id="linear-gradient" x1="215.688" y1="237.855" x2="225.231" y2="515.574" gradientUnits="userSpaceOnUse"><stop offset="0" stop-color="#1aa7ec"/><stop offset="0.189" stop-color="#1aa1de"/><stop offset="0.715" stop-color="#1893bc"/><stop offset="1" stop-color="#188eaf"/></linearGradient><linearGradient id="linear-gradient-2" x1="366.901" y1="238.379" x2="371.087" y2="511.758" xlink:href="#linear-gradient"/><linearGradient id="linear-gradient-3" x1="294.895" y1="548.373" x2="294.895" y2="495.1" gradientUnits="userSpaceOnUse"><stop offset="0" stop-color="#188eaf"/><stop offset="0.165" stop-color="#1995bf"/><stop offset="0.478" stop-color="#199fd8"/><stop offset="0.766" stop-color="#1aa5e7"/><stop offset="1" stop-color="#1aa7ec"/></linearGradient><linearGradient id="linear-gradient-4" x1="289.7" y1="231.966" x2="306.926" y2="357.772" gradientUnits="userSpaceOnUse"><stop offset="0.171" stop-color="#1aa7ec"/><stop offset="0.301" stop-color="#1aa6e9"/><stop offset="0.397" stop-color="#1aa2df"/><stop offset="0.483" stop-color="#199bcf"/><stop offset="0.563" stop-color="#1892b9"/><stop offset="0.59" stop-color="#188eaf"/></linearGradient><linearGradient id="linear-gradient-5" x1="267.52" y1="354.223" x2="294.037" y2="398.585" xlink:href="#linear-gradient-3"/><linearGradient id="linear-gradient-6" x1="340.081" y1="308.885" x2="301.87" y2="388.167" gradientUnits="userSpaceOnUse"><stop offset="0" stop-color="#1aa7ec"/><stop offset="0.234" stop-color="#1aa5e7"/><stop offset="0.522" stop-color="#199fd8"/><stop offset="0.835" stop-color="#1995bf"/><stop offset="1" stop-color="#188eaf"/></linearGradient></defs><polygon class="cls-1" points="287.928 201.747 296.198 205.329 296.382 207.659 292.155 207.457 287.928 201.747"/><path class="cls-2" d="M220.89,104.248l-.15-.15c-7.47,14.87-10.81,31.97-8.52,48.5,2.37,25.56,17.98,49.27,39.85,62.52a84.889,84.889,0,0,0,97.884-6.991,93.959,93.959,0,0,0,7.476-7.009,85.373,85.373,0,0,0,17.79-28.14c8.77-23.33,6.95-50.58-5.63-72.2a84.742,84.742,0,0,0-105.21-36.49,23.423,23.423,0,0,1-5.51,2.09,29.027,29.027,0,0,1-4.21-2.84c-11.2-8.35-23.32-15.37-35.64-21.91-3.43,3.33-7.28,6.19-10.69,9.55a140.119,140.119,0,0,0-19.35,23.41c12.76,6.05,25.51,12.41,36.87,20.85C224.24,98.408,222.22,101.138,220.89,104.248Zm33.43,33.44a42.262,42.262,0,0,1,45.8-36.81c18.61,1.56,34.89,16.87,37.56,35.35,2.2,12.21-1.93,25.19-10.08,34.42a41.967,41.967,0,0,1-71.22-14.08C254.07,150.558,253.9,144.038,254.32,137.688Z" transform="translate(-146.674 -41.628)"/><path class="cls-3" d="M294.81,495.1l-33.43,27.22a342.342,342.342,0,0,1-59.7-68.81c-.16-.25-20.52-34.61-28.12-52.72a342.205,342.205,0,0,1-21.4-71.68,331.494,331.494,0,0,1-5.27-71.22c.05-1.17.32-8.08.48-10.09a306.024,306.024,0,0,1,44.38-18.08c-2.5,18.01-2.72,36.2-2.33,54.34,1.2,13.13,2.43,26.26,4.82,39.23a299.482,299.482,0,0,0,19.58,63.42,276.862,276.862,0,0,0,17.84,34.47c3.36,5.55,14.41,21.61,16.35,24.22.64.87,5.81,7.42,5.81,7.42C265.35,467.33,294.81,495.1,294.81,495.1Z" transform="translate(-146.674 -41.628)"/><path class="cls-4" d="M442.9,284.29a340.709,340.709,0,0,1-25.88,115.17,337.446,337.446,0,0,1-28.06,53.01,340.794,340.794,0,0,1-28.94,38.29,334.977,334.977,0,0,1-31.61,31.55l-33.6-27.21s29.85-27.76,42.28-43.34a294.489,294.489,0,0,0,33.12-52.42,278.914,278.914,0,0,0,19.72-51.17,296.539,296.539,0,0,0,10.52-68.84c.34-9.05.02-18.1-.04-27.15-.53-7.82-1.44-15.6-2.23-23.39,13.65,4.67,27.22,9.95,40.31,15.77,1.22.55,2.85.92,3.8,1.89a1.72,1.72,0,0,1,.39.61,5,5,0,0,1,.23,1.6c.14,5.55.37,11.1.42,16.66C443.39,271.64,443.21,277.97,442.9,284.29Z" transform="translate(-146.674 -41.628)"/><path class="cls-5" d="M328.41,522.31v.01q-12.15,10.665-25.16,20.22-2.01,1.47-4.05,2.93c-.71.5-1.42,1-2.13,1.49a15.209,15.209,0,0,1-2.06,1.41c-4.68-3.13-9.19-6.52-13.72-9.87-6.85-5.07-13.51-10.53-19.91-16.18l33.43-27.22Z" transform="translate(-146.674 -41.628)"/><path class="cls-6" d="M358.46,253.11c-.19,15.04-.19,29.71-1.59,44.45v.01c-19.04,9.56-44.98,13.42-44.98,13.42-12.34,1.55-24.83.85-37.17-.42-14.21-2.05-28.31-5.37-41.61-10.87-1.84-14.52-1.56-29.27-1.61-43.9v-1.27c-.01-.84-.01-1.69-.02-2.53.01,0,0-1.46,0-1.46,3.46,2.33,6.8,4.95,10.59,6.72a128.6,128.6,0,0,0,42.88,11.42A121.426,121.426,0,0,0,341.12,261q4.545-1.74,8.96-3.77C351.03,256.79,358.45,253.92,358.46,253.11Z" transform="translate(-146.674 -41.628)"/><path class="cls-7" d="M295.2,360.98a.031.031,0,0,1-.01.02c-.28.68-9.34,22.67-26.33,40.58a250.315,250.315,0,0,1-15.35-29.2c-3.67-8.23-7.4-16.71-9.99-25.33-.24-.8,11.53-2.96,12.41-3.13,7.24-1.37,24.28-3.68,30.1-3.88,1.95,5.01,3.94,10.01,6.14,14.92A45.2,45.2,0,0,0,295.2,360.98Z" transform="translate(-146.674 -41.628)"/><path class="cls-8" d="M356.87,297.57c-.58,6.14-1.4,12.3-2.58,18.5A254.937,254.937,0,0,1,310.4,417.64a238.846,238.846,0,0,1-15.46,19.16q-8.145-9.33-15.43-19.31-5.67-7.755-10.65-15.91c16.99-17.91,26.05-39.9,26.33-40.58a.031.031,0,0,0,.01-.02c.7-1.12,6.35-14.69,7.46-17.69,2.23-5.97,4.33-12.02,6-18.18.36-1.3,3.14-13.06,3.23-14.12C311.89,310.99,337.83,307.13,356.87,297.57Z" transform="translate(-146.674 -41.628)"/></svg>